<svg xmlns="http://www.w3.org/2000/svg" style="display:none">
  <!-- Home -->
  <symbol id="icon-home" viewBox="0 0 24 24" fill="none" stroke="currentColor" stroke-width="1.75" stroke-linecap="round" stroke-linejoin="round">
    <path d="M3 9.5L12 3l9 6.5V20a1 1 0 0 1-1 1H4a1 1 0 0 1-1-1V9.5z"/>
    <polyline points="9 21 9 14 15 14 15 21"/>
  </symbol>

  <!-- Compass (Discover) -->
  <symbol id="icon-compass" viewBox="0 0 24 24" fill="none" stroke="currentColor" stroke-width="1.75" stroke-linecap="round" stroke-linejoin="round">
    <circle cx="12" cy="12" r="10"/>
    <polygon points="16.24 7.76 14.12 14.12 7.76 16.24 9.88 9.88 16.24 7.76"/>
  </symbol>

  <!-- Users (Following) -->
  <symbol id="icon-users" viewBox="0 0 24 24" fill="none" stroke="currentColor" stroke-width="1.75" stroke-linecap="round" stroke-linejoin="round">
    <path d="M17 21v-2a4 4 0 0 0-4-4H5a4 4 0 0 0-4 4v2"/>
    <circle cx="9" cy="7" r="4"/>
    <path d="M23 21v-2a4 4 0 0 0-3-3.87"/>
    <path d="M16 3.13a4 4 0 0 1 0 7.75"/>
  </symbol>

  <!-- Bookmark (Saved) -->
  <symbol id="icon-bookmark" viewBox="0 0 24 24" fill="none" stroke="currentColor" stroke-width="1.75" stroke-linecap="round" stroke-linejoin="round">
    <path d="M19 21l-7-5-7 5V5a2 2 0 0 1 2-2h10a2 2 0 0 1 2 2z"/>
  </symbol>

  <!-- Bookmark Filled -->
  <symbol id="icon-bookmark-filled" viewBox="0 0 24 24" fill="currentColor" stroke="currentColor" stroke-width="1.75" stroke-linecap="round" stroke-linejoin="round">
    <path d="M19 21l-7-5-7 5V5a2 2 0 0 1 2-2h10a2 2 0 0 1 2 2z"/>
  </symbol>

  <!-- User (You) -->
  <symbol id="icon-user" viewBox="0 0 24 24" fill="none" stroke="currentColor" stroke-width="1.75" stroke-linecap="round" stroke-linejoin="round">
    <path d="M20 21v-2a4 4 0 0 0-4-4H8a4 4 0 0 0-4 4v2"/>
    <circle cx="12" cy="7" r="4"/>
  </symbol>

  <!-- Sun -->
  <symbol id="icon-sun" viewBox="0 0 24 24" fill="none" stroke="currentColor" stroke-width="1.75" stroke-linecap="round" stroke-linejoin="round">
    <circle cx="12" cy="12" r="5"/>
    <line x1="12" y1="1" x2="12" y2="3"/>
    <line x1="12" y1="21" x2="12" y2="23"/>
    <line x1="4.22" y1="4.22" x2="5.64" y2="5.64"/>
    <line x1="18.36" y1="18.36" x2="19.78" y2="19.78"/>
    <line x1="1" y1="12" x2="3" y2="12"/>
    <line x1="21" y1="12" x2="23" y2="12"/>
    <line x1="4.22" y1="19.78" x2="5.64" y2="18.36"/>
    <line x1="18.36" y1="5.64" x2="19.78" y2="4.22"/>
  </symbol>

  <!-- Moon -->
  <symbol id="icon-moon" viewBox="0 0 24 24" fill="none" stroke="currentColor" stroke-width="1.75" stroke-linecap="round" stroke-linejoin="round">
    <path d="M21 12.79A9 9 0 1 1 11.21 3 7 7 0 0 0 21 12.79z"/>
  </symbol>

  <!-- Search -->
  <symbol id="icon-search" viewBox="0 0 24 24" fill="none" stroke="currentColor" stroke-width="1.75" stroke-linecap="round" stroke-linejoin="round">
    <circle cx="11" cy="11" r="8"/>
    <line x1="21" y1="21" x2="16.65" y2="16.65"/>
  </symbol>

  <!-- Bell -->
  <symbol id="icon-bell" viewBox="0 0 24 24" fill="none" stroke="currentColor" stroke-width="1.75" stroke-linecap="round" stroke-linejoin="round">
    <path d="M18 8A6 6 0 0 0 6 8c0 7-3 9-3 9h18s-3-2-3-9"/>
    <path d="M13.73 21a2 2 0 0 1-3.46 0"/>
  </symbol>

  <!-- Headphones -->
  <symbol id="icon-headphones" viewBox="0 0 24 24" fill="none" stroke="currentColor" stroke-width="1.75" stroke-linecap="round" stroke-linejoin="round">
    <path d="M3 18v-6a9 9 0 0 1 18 0v6"/>
    <path d="M21 19a2 2 0 0 1-2 2h-1a2 2 0 0 1-2-2v-3a2 2 0 0 1 2-2h3zM3 19a2 2 0 0 0 2 2h1a2 2 0 0 0 2-2v-3a2 2 0 0 0-2-2H3z"/>
  </symbol>

  <!-- Heart -->
  <symbol id="icon-heart" viewBox="0 0 24 24" fill="none" stroke="currentColor" stroke-width="1.75" stroke-linecap="round" stroke-linejoin="round">
    <path d="M20.84 4.61a5.5 5.5 0 0 0-7.78 0L12 5.67l-1.06-1.06a5.5 5.5 0 0 0-7.78 7.78l1.06 1.06L12 21.23l7.78-7.78 1.06-1.06a5.5 5.5 0 0 0 0-7.78z"/>
  </symbol>

  <!-- Heart Filled -->
  <symbol id="icon-heart-filled" viewBox="0 0 24 24" fill="currentColor" stroke="currentColor" stroke-width="1.75" stroke-linecap="round" stroke-linejoin="round">
    <path d="M20.84 4.61a5.5 5.5 0 0 0-7.78 0L12 5.67l-1.06-1.06a5.5 5.5 0 0 0-7.78 7.78l1.06 1.06L12 21.23l7.78-7.78 1.06-1.06a5.5 5.5 0 0 0 0-7.78z"/>
  </symbol>

  <!-- Message Circle -->
  <symbol id="icon-message-circle" viewBox="0 0 24 24" fill="none" stroke="currentColor" stroke-width="1.75" stroke-linecap="round" stroke-linejoin="round">
    <path d="M21 11.5a8.38 8.38 0 0 1-.9 3.8 8.5 8.5 0 0 1-7.6 4.7 8.38 8.38 0 0 1-3.8-.9L3 21l1.9-5.7a8.38 8.38 0 0 1-.9-3.8 8.5 8.5 0 0 1 4.7-7.6 8.38 8.38 0 0 1 3.8-.9h.5a8.48 8.48 0 0 1 8 8v.5z"/>
  </symbol>

  <!-- Share -->
  <symbol id="icon-share" viewBox="0 0 24 24" fill="none" stroke="currentColor" stroke-width="1.75" stroke-linecap="round" stroke-linejoin="round">
    <circle cx="18" cy="5" r="3"/>
    <circle cx="6" cy="12" r="3"/>
    <circle cx="18" cy="19" r="3"/>
    <line x1="8.59" y1="13.51" x2="15.42" y2="17.49"/>
    <line x1="15.41" y1="6.51" x2="8.59" y2="10.49"/>
  </symbol>

  <!-- Plus -->
  <symbol id="icon-plus" viewBox="0 0 24 24" fill="none" stroke="currentColor" stroke-width="1.75" stroke-linecap="round" stroke-linejoin="round">
    <line x1="12" y1="5" x2="12" y2="19"/>
    <line x1="5" y1="12" x2="19" y2="12"/>
  </symbol>

  <!-- Chevron Left -->
  <symbol id="icon-chevron-left" viewBox="0 0 24 24" fill="none" stroke="currentColor" stroke-width="1.75" stroke-linecap="round" stroke-linejoin="round">
    <polyline points="15 18 9 12 15 6"/>
  </symbol>

  <!-- Chevron Right -->
  <symbol id="icon-chevron-right" viewBox="0 0 24 24" fill="none" stroke="currentColor" stroke-width="1.75" stroke-linecap="round" stroke-linejoin="round">
    <polyline points="9 18 15 12 9 6"/>
  </symbol>

  <!-- X (Close) -->
  <symbol id="icon-x" viewBox="0 0 24 24" fill="none" stroke="currentColor" stroke-width="1.75" stroke-linecap="round" stroke-linejoin="round">
    <line x1="18" y1="6" x2="6" y2="18"/>
    <line x1="6" y1="6" x2="18" y2="18"/>
  </symbol>

  <!-- Menu -->
  <symbol id="icon-menu" viewBox="0 0 24 24" fill="none" stroke="currentColor" stroke-width="1.75" stroke-linecap="round" stroke-linejoin="round">
    <line x1="3" y1="12" x2="21" y2="12"/>
    <line x1="3" y1="6" x2="21" y2="6"/>
    <line x1="3" y1="18" x2="21" y2="18"/>
  </symbol>

  <!-- More Horizontal -->
  <symbol id="icon-more-horizontal" viewBox="0 0 24 24" fill="none" stroke="currentColor" stroke-width="1.75" stroke-linecap="round" stroke-linejoin="round">
    <circle cx="12" cy="12" r="1"/>
    <circle cx="19" cy="12" r="1"/>
    <circle cx="5" cy="12" r="1"/>
  </symbol>

  <!-- Play -->
  <symbol id="icon-play" viewBox="0 0 24 24" fill="none" stroke="currentColor" stroke-width="1.75" stroke-linecap="round" stroke-linejoin="round">
    <polygon points="5 3 19 12 5 21 5 3"/>
  </symbol>

  <!-- Pause -->
  <symbol id="icon-pause" viewBox="0 0 24 24" fill="none" stroke="currentColor" stroke-width="1.75" stroke-linecap="round" stroke-linejoin="round">
    <rect x="6" y="4" width="4" height="16"/>
    <rect x="14" y="4" width="4" height="16"/>
  </symbol>

  <!-- Star -->
  <symbol id="icon-star" viewBox="0 0 24 24" fill="none" stroke="currentColor" stroke-width="1.75" stroke-linecap="round" stroke-linejoin="round">
    <polygon points="12 2 15.09 8.26 22 9.27 17 14.14 18.18 21.02 12 17.77 5.82 21.02 7 14.14 2 9.27 8.91 8.26 12 2"/>
  </symbol>

  <!-- Star Filled -->
  <symbol id="icon-star-filled" viewBox="0 0 24 24" fill="currentColor" stroke="currentColor" stroke-width="1.75" stroke-linecap="round" stroke-linejoin="round">
    <polygon points="12 2 15.09 8.26 22 9.27 17 14.14 18.18 21.02 12 17.77 5.82 21.02 7 14.14 2 9.27 8.91 8.26 12 2"/>
  </symbol>

  <!-- Volume X (Mute) -->
  <symbol id="icon-volume-x" viewBox="0 0 24 24" fill="none" stroke="currentColor" stroke-width="1.75" stroke-linecap="round" stroke-linejoin="round">
    <polygon points="11 5 6 9 2 9 2 15 6 15 11 19 11 5"/>
    <line x1="23" y1="9" x2="17" y2="15"/>
    <line x1="17" y1="9" x2="23" y2="15"/>
  </symbol>

  <!-- Skip Forward (TTS) -->
  <symbol id="icon-skip-forward" viewBox="0 0 24 24" fill="none" stroke="currentColor" stroke-width="1.75" stroke-linecap="round" stroke-linejoin="round">
    <polygon points="5 4 15 12 5 20 5 4"/>
    <line x1="19" y1="5" x2="19" y2="19"/>
  </symbol>

  <!-- Highlight -->
  <symbol id="icon-highlight" viewBox="0 0 24 24" fill="none" stroke="currentColor" stroke-width="1.75" stroke-linecap="round" stroke-linejoin="round">
    <path d="M12 20h9"/>
    <path d="M16.5 3.5a2.121 2.121 0 0 1 3 3L7 19l-4 1 1-4L16.5 3.5z"/>
  </symbol>

  <!-- Quote Left (filled) -->
  <symbol id="icon-quote-left" viewBox="0 0 24 24" fill="currentColor">
    <path d="M4.583 17.321C3.553 16.227 3 15 3 13.011c0-3.5 2.457-6.637 6.03-8.188l.893 1.378c-3.335 1.804-3.987 4.145-4.247 5.621.537-.278 1.24-.375 1.929-.311C9.591 11.69 11 13.166 11 15c0 1.933-1.567 3.5-3.5 3.5-1.171 0-2.267-.566-2.917-1.179zM14.583 17.321C13.553 16.227 13 15 13 13.011c0-3.5 2.457-6.637 6.03-8.188l.893 1.378c-3.335 1.804-3.987 4.145-4.247 5.621.537-.278 1.24-.375 1.929-.311C19.591 11.69 21 13.166 21 15c0 1.933-1.567 3.5-3.5 3.5-1.171 0-2.267-.566-2.917-1.179z"/>
  </symbol>

  <!-- Trending Up -->
  <symbol id="icon-trending-up" viewBox="0 0 24 24" fill="none" stroke="currentColor" stroke-width="1.75" stroke-linecap="round" stroke-linejoin="round">
    <polyline points="23 6 13.5 15.5 8.5 10.5 1 18"/>
    <polyline points="17 6 23 6 23 12"/>
  </symbol>

  <!-- Eye Off (Not interested) -->
  <symbol id="icon-eye-off" viewBox="0 0 24 24" fill="none" stroke="currentColor" stroke-width="1.75" stroke-linecap="round" stroke-linejoin="round">
    <path d="M17.94 17.94A10.07 10.07 0 0 1 12 20c-7 0-11-8-11-8a18.45 18.45 0 0 1 5.06-5.94"/>
    <path d="M9.9 4.24A9.12 9.12 0 0 1 12 4c7 0 11 8 11 8a18.5 18.5 0 0 1-2.16 3.19"/>
    <path d="M14.12 14.12a3 3 0 1 1-4.24-4.24"/>
    <line x1="1" y1="1" x2="23" y2="23"/>
  </symbol>

  <!-- Edit (Pencil) — compose button -->
  <symbol id="icon-edit" viewBox="0 0 24 24" fill="none" stroke="currentColor" stroke-width="1.75" stroke-linecap="round" stroke-linejoin="round">
    <path d="M11 4H4a2 2 0 0 0-2 2v14a2 2 0 0 0 2 2h14a2 2 0 0 0 2-2v-7"/>
    <path d="M18.5 2.5a2.121 2.121 0 0 1 3 3L12 15l-4 1 1-4 9.5-9.5z"/>
  </symbol>

  <!-- Image — compose toolbar -->
  <symbol id="icon-image" viewBox="0 0 24 24" fill="none" stroke="currentColor" stroke-width="1.75" stroke-linecap="round" stroke-linejoin="round">
    <rect x="3" y="3" width="18" height="18" rx="2" ry="2"/>
    <circle cx="8.5" cy="8.5" r="1.5"/>
    <polyline points="21 15 16 10 5 21"/>
  </symbol>

  <!-- Link — compose toolbar -->
  <symbol id="icon-link" viewBox="0 0 24 24" fill="none" stroke="currentColor" stroke-width="1.75" stroke-linecap="round" stroke-linejoin="round">
    <path d="M10 13a5 5 0 0 0 7.54.54l3-3a5 5 0 0 0-7.07-7.07l-1.72 1.71"/>
    <path d="M14 11a5 5 0 0 0-7.54-.54l-3 3a5 5 0 0 0 7.07 7.07l1.71-1.71"/>
  </symbol>

  <!-- Repeat (Repost) -->
  <symbol id="icon-repeat" viewBox="0 0 24 24" fill="none" stroke="currentColor" stroke-width="1.75" stroke-linecap="round" stroke-linejoin="round">
    <polyline points="17 1 21 5 17 9"/>
    <path d="M3 11V9a4 4 0 0 1 4-4h14"/>
    <polyline points="7 23 3 19 7 15"/>
    <path d="M21 13v2a4 4 0 0 1-4 4H3"/>
  </symbol>

  <!-- Grip Vertical (drag handle) -->
  <symbol id="icon-grip-vertical" viewBox="0 0 24 24" fill="none" stroke="currentColor" stroke-width="2" stroke-linecap="round" stroke-linejoin="round">
    <path d="M3 6h18"/>
    <path d="M3 12h18"/>
    <path d="M3 18h18"/>
  </symbol>

  <!-- Clock (History) -->
  <symbol id="icon-clock" viewBox="0 0 24 24" fill="none" stroke="currentColor" stroke-width="1.75" stroke-linecap="round" stroke-linejoin="round">
    <circle cx="12" cy="12" r="10"/>
    <polyline points="12 6 12 12 16 14"/>
  </symbol>

  <!-- Grid (view toggle) -->
  <symbol id="icon-grid" viewBox="0 0 24 24" fill="none" stroke="currentColor" stroke-width="1.75" stroke-linecap="round" stroke-linejoin="round">
    <rect x="3" y="3" width="7" height="7"/>
    <rect x="14" y="3" width="7" height="7"/>
    <rect x="3" y="14" width="7" height="7"/>
    <rect x="14" y="14" width="7" height="7"/>
  </symbol>

  <!-- List (view toggle) -->
  <symbol id="icon-list" viewBox="0 0 24 24" fill="none" stroke="currentColor" stroke-width="1.75" stroke-linecap="round" stroke-linejoin="round">
    <line x1="8" y1="6" x2="21" y2="6"/>
    <line x1="8" y1="12" x2="21" y2="12"/>
    <line x1="8" y1="18" x2="21" y2="18"/>
    <circle cx="4" cy="6" r="1" fill="currentColor"/>
    <circle cx="4" cy="12" r="1" fill="currentColor"/>
    <circle cx="4" cy="18" r="1" fill="currentColor"/>
  </symbol>

  <!-- RSS -->
  <symbol id="icon-rss" viewBox="0 0 24 24" fill="none" stroke="currentColor" stroke-width="1.75" stroke-linecap="round" stroke-linejoin="round">
    <path d="M4 11a9 9 0 0 1 9 9"/>
    <path d="M4 4a16 16 0 0 1 16 16"/>
    <circle cx="5" cy="19" r="1.5" fill="currentColor"/>
  </symbol>

  <!-- Book Open -->
  <symbol id="icon-book-open" viewBox="0 0 24 24" fill="none" stroke="currentColor" stroke-width="1.75" stroke-linecap="round" stroke-linejoin="round">
    <path d="M2 3h6a4 4 0 0 1 4 4v14a3 3 0 0 0-3-3H2z"/>
    <path d="M22 3h-6a4 4 0 0 0-4 4v14a3 3 0 0 1 3-3h7z"/>
  </symbol>

  <!-- Mail (Email) -->
  <symbol id="icon-mail" viewBox="0 0 24 24" fill="none" stroke="currentColor" stroke-width="1.75" stroke-linecap="round" stroke-linejoin="round">
    <rect x="2" y="4" width="20" height="16" rx="2"/>
    <polyline points="22 7 12 13 2 7"/>
  </symbol>

  <!-- X / Twitter -->
  <symbol id="icon-x-twitter" viewBox="0 0 24 24" fill="currentColor">
    <path d="M18.244 2.25h3.308l-7.227 8.26 8.502 11.24H16.17l-5.214-6.817L4.99 21.75H1.68l7.73-8.835L1.254 2.25H8.08l4.713 6.231zm-1.161 17.52h1.833L7.084 4.126H5.117z"/>
  </symbol>

  <!-- Facebook -->
  <symbol id="icon-facebook" viewBox="0 0 24 24" fill="currentColor">
    <path d="M24 12.073c0-6.627-5.373-12-12-12s-12 5.373-12 12c0 5.99 4.388 10.954 10.125 11.854v-8.385H7.078v-3.47h3.047V9.43c0-3.007 1.792-4.669 4.533-4.669 1.312 0 2.686.235 2.686.235v2.953H15.83c-1.491 0-1.956.925-1.956 1.874v2.25h3.328l-.532 3.47h-2.796v8.385C19.612 23.027 24 18.062 24 12.073z"/>
  </symbol>

  <!-- Bluesky -->
  <symbol id="icon-bluesky" viewBox="0 0 24 24" fill="currentColor">
    <path d="M12 10.8c-1.087-2.114-4.046-6.053-6.798-7.995C2.566.944 1.092 1.397.752 2.306.369 3.336.283 5.528.612 7.157c.563 2.792 2.654 3.176 4.476 2.936-.086.017-.168.036-.245.058-2.426.691-4.065 2.384-1.095 4.22 3.407 1.95 5.474-.37 6.252-1.929.778 1.56 2.845 3.878 6.252 1.929 2.97-1.836 1.331-3.529-1.095-4.22a3.15 3.15 0 0 0-.245-.058c1.822.24 3.913-.144 4.476-2.936.329-1.63.243-3.822-.14-4.851-.34-.91-1.814-1.362-4.45.499-2.752 1.942-5.711 5.88-6.798 7.995z"/>
  </symbol>

  <!-- Settings (Gear) -->
  <symbol id="icon-settings" viewBox="0 0 24 24" fill="none" stroke="currentColor" stroke-width="1.75" stroke-linecap="round" stroke-linejoin="round">
    <circle cx="12" cy="12" r="3"/>
    <path d="M19.4 15a1.65 1.65 0 0 0 .33 1.82l.06.06a2 2 0 0 1-2.83 2.83l-.06-.06a1.65 1.65 0 0 0-1.82-.33 1.65 1.65 0 0 0-1 1.51V21a2 2 0 0 1-4 0v-.09A1.65 1.65 0 0 0 9 19.4a1.65 1.65 0 0 0-1.82.33l-.06.06a2 2 0 0 1-2.83-2.83l.06-.06A1.65 1.65 0 0 0 4.68 15a1.65 1.65 0 0 0-1.51-1H3a2 2 0 0 1 0-4h.09A1.65 1.65 0 0 0 4.6 9a1.65 1.65 0 0 0-.33-1.82l-.06-.06a2 2 0 0 1 2.83-2.83l.06.06A1.65 1.65 0 0 0 9 4.68a1.65 1.65 0 0 0 1-1.51V3a2 2 0 0 1 4 0v.09a1.65 1.65 0 0 0 1 1.51 1.65 1.65 0 0 0 1.82-.33l.06-.06a2 2 0 0 1 2.83 2.83l-.06.06A1.65 1.65 0 0 0 19.4 9a1.65 1.65 0 0 0 1.51 1H21a2 2 0 0 1 0 4h-.09a1.65 1.65 0 0 0-1.51 1z"/>
  </symbol>

  <!-- Couch (Living Rooms) -->
  <symbol id="icon-couch" viewBox="0 0 24 24" fill="none" stroke="currentColor" stroke-width="1.75" stroke-linecap="round" stroke-linejoin="round">
    <path d="M4 11V8a4 4 0 0 1 4-4h8a4 4 0 0 1 4 4v3"/>
    <path d="M2 11a2 2 0 0 1 2-2h0a2 2 0 0 1 2 2v4H2v-4zM18 11a2 2 0 0 1 2-2h0a2 2 0 0 1 2 2v4h-4v-4z"/>
    <path d="M6 15h12v2a2 2 0 0 1-2 2H8a2 2 0 0 1-2-2v-2z"/>
    <line x1="6" y1="19" x2="6" y2="21"/>
    <line x1="18" y1="19" x2="18" y2="21"/>
  </symbol>

  <!-- Lock (Private) -->
  <symbol id="icon-lock" viewBox="0 0 24 24" fill="none" stroke="currentColor" stroke-width="1.75" stroke-linecap="round" stroke-linejoin="round">
    <rect x="3" y="11" width="18" height="11" rx="2" ry="2"/>
    <path d="M7 11V7a5 5 0 0 1 10 0v4"/>
  </symbol>

  <!-- Globe (Public) -->
  <symbol id="icon-globe" viewBox="0 0 24 24" fill="none" stroke="currentColor" stroke-width="1.75" stroke-linecap="round" stroke-linejoin="round">
    <circle cx="12" cy="12" r="10"/>
    <line x1="2" y1="12" x2="22" y2="12"/>
    <path d="M12 2a15.3 15.3 0 0 1 4 10 15.3 15.3 0 0 1-4 10 15.3 15.3 0 0 1-4-10 15.3 15.3 0 0 1 4-10z"/>
  </symbol>

  <!-- Users Plus (Invite) -->
  <symbol id="icon-users-plus" viewBox="0 0 24 24" fill="none" stroke="currentColor" stroke-width="1.75" stroke-linecap="round" stroke-linejoin="round">
    <path d="M16 21v-2a4 4 0 0 0-4-4H5a4 4 0 0 0-4 4v2"/>
    <circle cx="8.5" cy="7" r="4"/>
    <line x1="20" y1="8" x2="20" y2="14"/>
    <line x1="23" y1="11" x2="17" y2="11"/>
  </symbol>

  <!-- Pin -->
  <symbol id="icon-pin" viewBox="0 0 24 24" fill="none" stroke="currentColor" stroke-width="1.75" stroke-linecap="round" stroke-linejoin="round">
    <path d="M12 17v5"/>
    <path d="M5 17h14v-1.76a2 2 0 0 0-1.11-1.79l-1.78-.9A2 2 0 0 1 15 10.76V6h1a2 2 0 0 0 0-4H8a2 2 0 0 0 0 4h1v4.76a2 2 0 0 1-1.11 1.79l-1.78.9A2 2 0 0 0 5 15.24z"/>
  </symbol>

  <!-- Message Square -->
  <symbol id="icon-message-square" viewBox="0 0 24 24" fill="none" stroke="currentColor" stroke-width="1.75" stroke-linecap="round" stroke-linejoin="round">
    <path d="M21 15a2 2 0 0 1-2 2H7l-4 4V5a2 2 0 0 1 2-2h14a2 2 0 0 1 2 2z"/>
  </symbol>
</svg>
